<svg id="Layer_1" data-name="Layer 1" xmlns="http://www.w3.org/2000/svg" viewBox="0 0 170 187"><defs><style>.cls-1{fill:#fff;}.cls-2{fill:none;}</style></defs><title>Reversed</title><path class="cls-1" d="M157.7,142.75a1.9,1.9,0,0,0-1.9,1.9v8.7a11.22,11.22,0,1,0,3.8,8.4v-17.1A1.91,1.91,0,0,0,157.7,142.75Zm-1.9,19a7.43,7.43,0,1,1-7.43-7.43A7.43,7.43,0,0,1,155.8,161.75Z"/><path class="cls-1" d="M120.08,161.75a11.23,11.23,0,1,0-3.79,8.41v.92a1.9,1.9,0,1,0,3.79,0v-9.31h0Zm-11.22,7.43a7.43,7.43,0,1,1,7.43-7.43A7.44,7.44,0,0,1,108.86,169.18Z"/><path class="cls-1" d="M91.84,150.53A1.89,1.89,0,0,0,90,152.42v9.33a7.44,7.44,0,0,1-14.87,0v-9.33a1.9,1.9,0,0,0-3.79,0v9.33a11.25,11.25,0,0,0,9.33,11.07v6a1.9,1.9,0,0,0,3.79,0v-6a11.25,11.25,0,0,0,9.33-11.07v-9.33A1.9,1.9,0,0,0,91.84,150.53Z"/><path class="cls-1" d="M137.05,152.11a2.18,2.18,0,0,0-.07-.27,1.93,1.93,0,0,0-.45-.75,2.06,2.06,0,0,0-.6-.41,1.87,1.87,0,0,0-.73-.15h0A11.23,11.23,0,0,0,124,161.75v9.33a1.9,1.9,0,1,0,3.8,0v-9.33a7.43,7.43,0,0,1,7.43-7.43,1.89,1.89,0,0,0,1.88-1.9A1.63,1.63,0,0,0,137.05,152.11Z"/><path class="cls-1" d="M39.16,150.51a1.9,1.9,0,0,0-1.9,1.9v18.67a1.9,1.9,0,1,0,3.8,0V152.41A1.9,1.9,0,0,0,39.16,150.51Z"/><path class="cls-1" d="M32.32,150.71h0a1.89,1.89,0,0,0-2.54.85l-7.63,15.26-7.64-15.26a1.9,1.9,0,1,0-3.39,1.7l9.34,18.68a1.89,1.89,0,0,0,3.37,0l9.34-18.68A1.9,1.9,0,0,0,32.32,150.71Z"/><path class="cls-1" d="M65.5,142.75a1.9,1.9,0,0,0-1.9,1.9v8.7a11.22,11.22,0,1,0,3.8,8.4v-17.1A1.9,1.9,0,0,0,65.5,142.75Zm-1.9,19a7.43,7.43,0,1,1-7.43-7.43A7.43,7.43,0,0,1,63.6,161.75Z"/><path class="cls-1" d="M84.51,32.19a45.65,45.65,0,0,1,10.91,1.32,1.91,1.91,0,0,0,2.21-1.17h0a1.91,1.91,0,0,0-1.33-2.54,49.38,49.38,0,0,0-23.39-.05,1.91,1.91,0,0,0-1.33,2.54h0a1.88,1.88,0,0,0,2.2,1.17A45.68,45.68,0,0,1,84.51,32.19Z"/><path class="cls-1" d="M108.06,37.35h0a1.93,1.93,0,0,0,.88,1.91,45.76,45.76,0,1,1-48.68-.11,1.92,1.92,0,0,0,.89-1.92h0a1.91,1.91,0,0,0-2.89-1.34A49.61,49.61,0,1,0,111,36,1.91,1.91,0,0,0,108.06,37.35Z"/><path class="cls-2" d="M82,77.48a10.15,10.15,0,0,0-6.83-2.57c-6,0-10.53,4.86-10.53,11.3s4.53,11.3,10.53,11.3a10.18,10.18,0,0,0,4.76-1.15,11.16,11.16,0,0,0,5.76-10.15A11.56,11.56,0,0,0,82,77.48Z"/><path class="cls-1" d="M101.85,52.28c1.17-7.5,2.39-15.26,3.36-21.49a6.4,6.4,0,0,0,6.61-5.22,6.47,6.47,0,0,0-4.46-7.3,6.4,6.4,0,0,0-4.76,11.82L94.78,50.34a52.27,52.27,0,0,0-20.35,0l-7.8-20.21A6.4,6.4,0,0,0,69.9,22.8a6.48,6.48,0,0,0-7.67-4.63A6.4,6.4,0,0,0,64,30.79l3.35,21.43A52.24,52.24,0,0,0,48.11,64.09a2.79,2.79,0,0,0-.8,2.34l4.77,38.08a41.88,41.88,0,0,0,64.86,0l.72-5.73,0,0a12.9,12.9,0,0,1-6,1.47c-7.57,0-13.28-6-13.28-14.06S104,72.15,111.58,72.15a13,13,0,0,1,8.66,3.27c.11.1.21.21.31.31l1.17-9.3a2.79,2.79,0,0,0-.81-2.34A52.43,52.43,0,0,0,101.85,52.28ZM81.28,98.94a13.2,13.2,0,0,1-6.11,1.49c-7.66,0-13.44-6.12-13.44-14.22S67.51,72,75.17,72a13.09,13.09,0,0,1,8.76,3.31,14.53,14.53,0,0,1,4.67,10.9A14.14,14.14,0,0,1,81.28,98.94Z"/><path class="cls-1" d="M82,77.48a10.15,10.15,0,0,0-6.83-2.57c-6,0-10.53,4.86-10.53,11.3s4.53,11.3,10.53,11.3a10.18,10.18,0,0,0,4.76-1.15,11.16,11.16,0,0,0,5.76-10.15A11.56,11.56,0,0,0,82,77.48ZM75.87,89.83a3.28,3.28,0,0,1-2.78,1.59,3.32,3.32,0,0,1-2.7-1.64,6.87,6.87,0,0,1-1.07-4A7.19,7.19,0,0,1,70.5,82l0,0a3.2,3.2,0,0,1,2.71-1.46A3.25,3.25,0,0,1,76,82.05,6.61,6.61,0,0,1,77.06,86,6.12,6.12,0,0,1,75.87,89.83Z"/><path class="cls-1" d="M73.93,82.81a1.33,1.33,0,1,0,1.32,1.33A1.33,1.33,0,0,0,73.93,82.81Z"/><path class="cls-1" d="M120.09,79.42h0a9.48,9.48,0,0,0-.77-1l0,0a10.94,10.94,0,0,0-.89-.91c-.23-.2-.46-.39-.71-.58a10.19,10.19,0,0,0-6.12-2,10.46,10.46,0,0,0-3.2.49,9.77,9.77,0,0,0-1.9.83,11.71,11.71,0,0,0-1,.69,11.38,11.38,0,0,0-4.39,9.29c0,6,4,10.69,9.42,11.25a10.08,10.08,0,0,0,1.11.05,10.86,10.86,0,0,0,1.28-.07,10.3,10.3,0,0,0,3.49-1.08c.28-.15.56-.32.83-.49l.17-.12a8.12,8.12,0,0,0,.75-.56h0a11.46,11.46,0,0,0,4-9A12,12,0,0,0,120.09,79.42Zm-7.81,10.41a3.12,3.12,0,0,1-5.47,0,6.79,6.79,0,0,1-1.08-4A7.27,7.27,0,0,1,106.91,82l0,0a3.22,3.22,0,0,1,2.72-1.46,3.26,3.26,0,0,1,2.75,1.59,6.6,6.6,0,0,1,1.06,3.9A6.12,6.12,0,0,1,112.28,89.83Z"/><path class="cls-1" d="M110.34,82.81a1.33,1.33,0,1,0,1.33,1.33A1.33,1.33,0,0,0,110.34,82.81Z"/><path class="cls-1" d="M166.48,146.82a1.1,1.1,0,0,0,.65-1c0-.82-.59-1.19-1.46-1.19H164.5a.5.5,0,0,0-.5.49v2.57a.5.5,0,1,0,1,0V147h.45l.74.93a.49.49,0,0,0,.38.19.48.48,0,0,0,.49-.48.52.52,0,0,0-.13-.34Zm-.87-.57H165v-.83h.62c.34,0,.53.15.53.42S166,146.25,165.61,146.25Z"/><path class="cls-1" d="M165.45,150a3.61,3.61,0,1,1,3.55-3.61A3.58,3.58,0,0,1,165.45,150Zm0-6.58a3,3,0,1,0,2.92,3A2.95,2.95,0,0,0,165.45,143.39Z"/></svg>