<svg id="Layer_1" data-name="Layer 1" xmlns="http://www.w3.org/2000/svg" viewBox="0 0 170 187"><defs><style>.cls-1{fill:#475066;}.cls-2{fill:#46db83;}.cls-3{fill:#fff;}</style></defs><title>Full</title><path class="cls-1" d="M84.89,32.19a45.5,45.5,0,0,1,10.9,1.32A1.9,1.9,0,0,0,98,32.34h0a1.9,1.9,0,0,0-1.33-2.54,49.34,49.34,0,0,0-23.38-.05A1.91,1.91,0,0,0,72,32.29h0a1.89,1.89,0,0,0,2.2,1.17A45.68,45.68,0,0,1,84.89,32.19Z"/><path class="cls-1" d="M108.44,37.35h0a1.91,1.91,0,0,0,.88,1.91,45.77,45.77,0,1,1-48.69-.11,1.92,1.92,0,0,0,.89-1.92h0a1.9,1.9,0,0,0-2.88-1.33,49.6,49.6,0,1,0,52.69.13A1.9,1.9,0,0,0,108.44,37.35Z"/><path class="cls-2" d="M95.16,50.35a52.53,52.53,0,0,0-7.33-1c-1,0-2-.08-2.94-.08a52.08,52.08,0,0,0-8.9.75A52.57,52.57,0,0,0,48.7,63.88a3.29,3.29,0,0,0-1,2.76l4.75,37.87a41.87,41.87,0,0,0,64.85,0l.72-5.73a14,14,0,0,0,7.2-12.57,14.47,14.47,0,0,0-4.3-10.5l1.14-9.07a3.2,3.2,0,0,0-.94-2.7,52.2,52.2,0,0,0-26-13.59Z"/><path class="cls-2" d="M80.31,96.36a10.37,10.37,0,0,1-4.77,1.15c-6,0-10.52-4.85-10.52-11.3s4.52-11.3,10.52-11.3a10.13,10.13,0,0,1,6.83,2.57,11.53,11.53,0,0,1,3.69,8.73A11.15,11.15,0,0,1,80.31,96.36Z"/><path class="cls-2" d="M116.72,96.36A10.37,10.37,0,0,1,112,97.51c-6,0-10.52-4.85-10.52-11.3S106,74.91,112,74.91a10.11,10.11,0,0,1,6.83,2.57,11.54,11.54,0,0,1,3.7,8.73A11.16,11.16,0,0,1,116.72,96.36Z"/><path class="cls-1" d="M67.74,52.22C66.57,44.74,65.36,37,64.38,30.79a6.4,6.4,0,0,1-1.79-12.62,6.48,6.48,0,0,1,7.68,4.63A6.4,6.4,0,0,1,67,30.09L74.8,50.3h0a51.32,51.32,0,0,0-7.07,1.92Z"/><path class="cls-1" d="M95.15,50.34,103,30.09a6.4,6.4,0,0,1,4.76-11.82,6.4,6.4,0,0,1-2.14,12.52c-1,6.23-2.19,14-3.37,21.49v0a53.86,53.86,0,0,0-7.06-1.95Z"/><path class="cls-3" d="M80.31,96.36a10.37,10.37,0,0,1-4.77,1.15c-6,0-10.52-4.85-10.52-11.3s4.52-11.3,10.52-11.3a10.13,10.13,0,0,1,6.83,2.57,11.53,11.53,0,0,1,3.69,8.73A11.15,11.15,0,0,1,80.31,96.36Z"/><path class="cls-3" d="M116.72,96.36A10.37,10.37,0,0,1,112,97.51c-6,0-10.52-4.85-10.52-11.3S106,74.91,112,74.91a10.11,10.11,0,0,1,6.83,2.57,11.54,11.54,0,0,1,3.7,8.73A11.16,11.16,0,0,1,116.72,96.36Z"/><path class="cls-1" d="M112.78,82.05a3.22,3.22,0,0,0-5.47-.13.08.08,0,0,0,0,0,7.1,7.1,0,0,0-1.18,3.86,6.72,6.72,0,0,0,1.07,4,3.13,3.13,0,0,0,5.48,0A6.24,6.24,0,0,0,113.85,86,6.61,6.61,0,0,0,112.78,82.05Z"/><circle class="cls-3" cx="110.72" cy="84.14" r="1.32"/><path class="cls-1" d="M76.37,82.05a3.26,3.26,0,0,0-2.75-1.59,3.22,3.22,0,0,0-2.72,1.46l0,0a7.18,7.18,0,0,0-1.17,3.86,6.72,6.72,0,0,0,1.07,4,3.12,3.12,0,0,0,5.47,0A6.12,6.12,0,0,0,77.43,86,6.6,6.6,0,0,0,76.37,82.05Z"/><circle class="cls-3" cx="74.31" cy="84.14" r="1.32"/><path class="cls-1" d="M158.06,142.43a1.92,1.92,0,0,0-1.92,1.91v8.79a11.34,11.34,0,1,0,3.84,8.5V144.34A1.92,1.92,0,0,0,158.06,142.43Zm-1.92,19.2a7.51,7.51,0,1,1-7.51-7.51A7.52,7.52,0,0,1,156.14,161.63Z"/><path class="cls-1" d="M120.05,161.63a11.35,11.35,0,1,0-3.83,8.49v.93a1.92,1.92,0,1,0,3.83,0v-9.41h0Zm-11.34,7.51a7.51,7.51,0,1,1,7.51-7.51A7.52,7.52,0,0,1,108.71,169.14Z"/><path class="cls-1" d="M91.52,150.28a1.92,1.92,0,0,0-1.92,1.92v9.43a7.51,7.51,0,1,1-15,0V152.2a1.92,1.92,0,1,0-3.83,0v9.43a11.37,11.37,0,0,0,9.42,11.18v6.1a1.92,1.92,0,0,0,3.84,0v-6.1a11.37,11.37,0,0,0,9.43-11.18V152.2A1.93,1.93,0,0,0,91.52,150.28Z"/><path class="cls-1" d="M137.2,151.88a2.46,2.46,0,0,0-.08-.27,1.7,1.7,0,0,0-.45-.75,1.92,1.92,0,0,0-.6-.42,2,2,0,0,0-.75-.16h0A11.37,11.37,0,0,0,124,161.63v9.42a1.92,1.92,0,1,0,3.83,0v-9.42a7.52,7.52,0,0,1,7.51-7.51,1.91,1.91,0,0,0,1.9-1.92C137.22,152.09,137.21,152,137.2,151.88Z"/><path class="cls-1" d="M38.28,150.27a1.92,1.92,0,0,0-1.91,1.92v18.86a1.92,1.92,0,1,0,3.83,0V152.19A1.92,1.92,0,0,0,38.28,150.27Z"/><path class="cls-1" d="M31.38,150.47h0a1.91,1.91,0,0,0-2.57.86L21.1,166.75l-7.72-15.42A1.92,1.92,0,1,0,10,153l9.44,18.88a1.91,1.91,0,0,0,3.41,0L32.24,153A1.93,1.93,0,0,0,31.38,150.47Z"/><path class="cls-1" d="M64.9,142.43A1.92,1.92,0,0,0,63,144.34v8.79a11.34,11.34,0,1,0,3.84,8.5V144.34A1.92,1.92,0,0,0,64.9,142.43ZM63,161.63a7.51,7.51,0,1,1-7.51-7.51A7.51,7.51,0,0,1,63,161.63Z"/><path class="cls-1" d="M166.94,146.54a1.11,1.11,0,0,0,.65-1c0-.83-.6-1.21-1.48-1.21h-1.18a.51.51,0,0,0-.5.5v2.6a.5.5,0,1,0,1,0v-.63h.46l.75.94a.49.49,0,0,0,.88-.29.5.5,0,0,0-.13-.34Zm-.88-.58h-.64v-.84h.64c.34,0,.53.16.53.42S166.4,146,166.06,146Z"/><path class="cls-1" d="M165.9,149.72a3.65,3.65,0,1,1,3.58-3.65A3.63,3.63,0,0,1,165.9,149.72Zm0-6.65a3,3,0,1,0,2.94,3A3,3,0,0,0,165.9,143.07Z"/></svg>